# xmcd
#
# Track frame offsets: 
#        150
#        13897
#        28342
#        42052
#        55797
#        67737
#        80830
#        94760
#        108372
#        122882
#        136800
#        148525
#        163202
#        175602
#        188877
#        201850
#        216810
#        229592
#        241780
#        256665
#        269350
#        282977
#        295770
#        308445
#        323402
#
# Disc length: 4492 seconds
#
# Revision: 4
# Processed by: cddbd v1.5.2PL0 Copyright (c) Steve Scherf et al.
# Submitted via: ExactAudioCopy v1.1
#
DISCID=5b118a19
DTITLE=Bob Wills and His Texas Playboys - San Antonio Rose [disc 01]
DYEAR=2000
DGENRE=Western Swing
TTITLE0=Sunbonnet Sue
TTITLE1=Nancy Jane
TTITLE2=Osage Stomp
TTITLE3=Get With It
TTITLE4=I Can't Give You Anything But Love
TTITLE5=Spanish Two Step
TTITLE6=Maiden's Prayer
TTITLE7=Wang Wang Blues
TTITLE8=St. Louis Blues
TTITLE9=Good Old Oklahoma
TTITLE10=Blue River
TTITLE11=Mexicali Rose
TTITLE12=I Ain't Got Nobody
TTITLE13=Never No More Blues
TTITLE14=Who Walks In When I Walk Out
TTITLE15=Old Fashioned Love
TTITLE16=Oklahoma Rag
TTITLE17=Black And Blue Rag
TTITLE18=Sittin' On Top Of The World
TTITLE19=Four Or Five Times
TTITLE20=I Can't Be Satisfied
TTITLE21=Smith's Reel
TTITLE22=Harmony
TTITLE23=Tulsa Waltz
TTITLE24=Waltz In D
EXTD=Bear Family 11CD+DVD BCD 15933 LL (2000-12-13) - UPC 790051593322,
EXTD=EAN 4000127159335, ISBN 3-89795-745-0.
EXTT0=
EXTT1=
EXTT2=
EXTT3=
EXTT4=
EXTT5=
EXTT6=
EXTT7=
EXTT8=
EXTT9=
EXTT10=
EXTT11=
EXTT12=
EXTT13=
EXTT14=
EXTT15=
EXTT16=
EXTT17=
EXTT18=(Lonnie Chatmon/Walter Vinson]\nRecorded Dallas US-TX, 1935-09-
EXTT18=24 (matrix DAL143-2) - Vocalion 3139 (1936) - Columbia 37612/2021
EXTT18=1 - BCD 15933-1/19 (2000).\nJames Robert "Bob" Wills: fiddle, vo
EXTT18=cal\nWilliam Leon McAuliffe: lead guitar\nRobert "Zeb" McNally:
EXTT18=sax\nArthur D. "Art" Haynes: fiddle/trombone\nJesse Thedford A
EXTT18=shlock: fiddle\nHerman Arnspiger, Clifton G. "Sleepy" Johnson: 
EXTT18=guitars\nJohnnie Lee Wills: banjo\nAlton Meeks "Al" Stricklin: 
EXTT18=piano\nThomas C. "Son" Lansford: bass\nWilliam E. "Smoky" Dacus
EXTT18=: drums
EXTT19=
EXTT20=
EXTT21=
EXTT22=
EXTT23=
EXTT24=
PLAYORDER=
